<?xml version="1.0" encoding="UTF-8"?>
<svg version="1.1" xmlns="http://www.w3.org/2000/svg" width="133" height="133">
<path d="M0 0 C4.09070531 0.66938814 5.0283655 1.23955587 7.4375 4.5625 C8.53114868 6.56819517 9.54544263 8.58827732 10.5078125 10.66015625 C11.50560253 12.80877513 11.50560253 12.80877513 13.4375 15.5625 C14.345 15.253125 15.2525 14.94375 16.1875 14.625 C27.67586725 10.86918763 39.00446409 12.09848755 50.4375 15.5625 C51.76884241 15.90369831 53.10145159 16.24022134 54.4375 16.5625 C54.99179688 15.78003906 55.54609375 14.99757813 56.1171875 14.19140625 C56.84164062 13.17949219 57.56609375 12.16757813 58.3125 11.125 C59.03179687 10.11566406 59.75109375 9.10632813 60.4921875 8.06640625 C62.81714802 5.07383659 63.53852043 4.68236394 67.25 4.1875 C71.4967261 4.68711484 72.78648555 6.30553939 75.4375 9.5625 C76.65867194 13.22601581 76.62156354 16.62302972 76.625 20.4375 C76.63724609 21.14519531 76.64949219 21.85289063 76.66210938 22.58203125 C76.67108615 25.79571683 76.583679 28.23888663 75.25 31.19140625 C74.12370222 33.66872832 74.12370222 33.66872832 75.51953125 36.53515625 C76.09058594 37.55480469 76.66164063 38.57445312 77.25 39.625 C80.76809178 46.00908875 81.67567334 50.7170902 81.8125 58 C81.86857422 59.12631836 81.86857422 59.12631836 81.92578125 60.27539062 C81.99299469 64.52103971 81.83820189 66.06658181 79.0703125 69.4921875 C73.10485371 74.1831269 67.67398478 75.16871089 60.265625 76.1328125 C57.49548056 76.40526482 57.49548056 76.40526482 55.4375 77.5625 C55.086875 78.51125 54.73625 79.46 54.375 80.4375 C51.92609837 84.38734134 50.04368454 84.84890908 45.703125 86.0390625 C35.6952328 88.3512307 26.16334764 88.22320099 16.4375 84.5625 C14.21384794 81.61766349 13.4375 80.19619773 13.4375 76.5625 C12.32955078 76.61470703 12.32955078 76.61470703 11.19921875 76.66796875 C1.44207492 76.92832456 -7.80617146 75.92666701 -15.5625 69.5625 C-18.11924328 65.72738508 -17.94658268 62.51483131 -17.9375 58.0625 C-17.93588867 57.25458008 -17.93427734 56.44666016 -17.93261719 55.61425781 C-17.76802042 47.54256145 -15.9562769 40.76626183 -11.25 34.125 C-10.693125 33.279375 -10.13625 32.43375 -9.5625 31.5625 C-9.86993581 30.22295825 -10.21087049 28.89112545 -10.5625 27.5625 C-10.68291097 24.92465972 -10.74758041 22.32484982 -10.75 19.6875 C-10.76836914 18.64529297 -10.76836914 18.64529297 -10.78710938 17.58203125 C-10.80377395 11.68277011 -9.96397229 7.40443501 -6.375 2.6875 C-3.5625 0.5625 -3.5625 0.5625 0 0 Z " fill="#1D190A" transform="translate(34.5625,-0.5625)"/>
<path d="M0 0 C1.32 0.33 2.64 0.66 4 1 C2.93908744 3.77469439 1.81595382 6.33269887 0.375 8.9375 C-1.11561643 12.25750933 -1.33452209 14.40388748 -1 18 C-0.67 18.33 -0.34 18.66 0 19 C0.33 21.31 0.66 23.62 1 26 C27.4 26 53.8 26 81 26 C81.66 23.69 82.32 21.38 83 19 C83.268125 18.175 83.53625 17.35 83.8125 16.5 C84.08710204 12.83863946 82.51990965 10.28300485 81 7 C81 6.01 81 5.02 81 4 C83.32421875 4.15625 83.32421875 4.15625 86 5 C90.42315915 11.55282837 91.48681539 19.27506158 91.625 27 C91.65944214 28.07604492 91.65944214 28.07604492 91.69458008 29.17382812 C91.63678982 33.10541463 91.140136 34.82976922 88.6171875 37.89453125 C82.69759957 42.65670721 77.2321549 43.60677436 69.828125 44.5703125 C67.05798056 44.84276482 67.05798056 44.84276482 65 46 C64.649375 46.94875 64.29875 47.8975 63.9375 48.875 C61.48859837 52.82484134 59.60618454 53.28640908 55.265625 54.4765625 C45.2577328 56.7887307 35.72584764 56.66070099 26 53 C23.77634794 50.05516349 23 48.63369773 23 45 C21.89205078 45.05220703 21.89205078 45.05220703 20.76171875 45.10546875 C11.00457492 45.36582456 1.75632854 44.36416701 -6 38 C-8.55674328 34.16488508 -8.38408268 30.95233131 -8.375 26.5 C-8.37338867 25.69208008 -8.37177734 24.88416016 -8.37011719 24.05175781 C-8.18235344 14.8439708 -5.55834605 7.34495728 0 0 Z " fill="#F2F29A" transform="translate(25,31)"/>
<path d="M0 0 C1.76657375 1.76657375 1.31812632 4.34792858 1.46484375 6.75 C1.54283203 7.9153125 1.62082031 9.080625 1.70117188 10.28125 C1.85870844 12.76017247 2.01235541 15.2393452 2.16210938 17.71875 C2.24138672 18.8840625 2.32066406 20.049375 2.40234375 21.25 C2.46929443 22.32765625 2.53624512 23.4053125 2.60522461 24.515625 C2.73550049 25.33546875 2.86577637 26.1553125 3 27 C3.66 27.33 4.32 27.66 5 28 C5.125 31.375 5.125 31.375 5 35 C4.34 35.66 3.68 36.32 3 37 C2.30643577 39.32548007 1.63850788 41.65880445 1 44 C0 45 0 45 -3.25 45.3125 C-7.60085725 44.94992856 -8.99689899 44.0889039 -12 41 C-16.91392452 32.73967526 -15.06559211 21.88863841 -13 13 C-8.68883143 -0.75555056 -8.68883143 -0.75555056 0 0 Z " fill="#E3E394" transform="translate(61,88)"/>
<path d="M0 0 C2.6875 0.375 2.6875 0.375 4.8125 2.4375 C9.95615607 10.49589451 10.86793279 17.65824736 10.875 26.9375 C10.88724609 27.78763672 10.89949219 28.63777344 10.91210938 29.51367188 C10.91500977 30.74633789 10.91500977 30.74633789 10.91796875 32.00390625 C10.92207764 32.74713135 10.92618652 33.49035645 10.93041992 34.25610352 C10.46539658 38.31232215 8.77213121 40.28844535 5.9375 43.1875 C2.6875 45.375 2.6875 45.375 -0.6875 45.1875 C-1.55375 44.919375 -2.42 44.65125 -3.3125 44.375 C-3.6425 42.065 -3.9725 39.755 -4.3125 37.375 C-4.9725 37.375 -5.6325 37.375 -6.3125 37.375 C-7.69375018 34.61249964 -7.50329306 32.42768901 -7.3125 29.375 C-6.6525 28.715 -5.9925 28.055 -5.3125 27.375 C-4.86348332 24.67768146 -4.86348332 24.67768146 -4.71484375 21.52734375 C-4.63556641 20.36525391 -4.55628906 19.20316406 -4.47460938 18.00585938 C-4.40048828 16.78705078 -4.32636719 15.56824219 -4.25 14.3125 C-4.09641811 11.90469139 -3.93907626 9.49711862 -3.77734375 7.08984375 C-3.67860962 5.48290649 -3.67860962 5.48290649 -3.57788086 3.84350586 C-3.23199983 0.62620774 -3.17145668 0.51429027 0 0 Z " fill="#E6E695" transform="translate(80.3125,86.625)"/>
<path d="M0 0 C2.3125 0.1875 2.3125 0.1875 5 1 C7.20915841 3.66622567 7.9314406 5.5886436 8.5 9 C7.82438407 13.0536956 6.03532014 14.3096026 3 17 C1.64444707 18.64864545 0.30368347 20.31003995 -1 22 C2.63 22.66 6.26 23.32 10 24 C10 24.33 10 24.66 10 25 C-12.77 25 -35.54 25 -59 25 C-59 24.67 -59 24.34 -59 24 C-44.48 23.67 -29.96 23.34 -15 23 C-15 21.02 -15 19.04 -15 17 C-15.75925781 16.96261719 -16.51851562 16.92523438 -17.30078125 16.88671875 C-18.29464844 16.82097656 -19.28851563 16.75523438 -20.3125 16.6875 C-21.29863281 16.62949219 -22.28476562 16.57148437 -23.30078125 16.51171875 C-26.25649894 15.95137285 -27.25629698 15.41023796 -29 13 C-29 12.34 -29 11.68 -29 11 C-28.01 11 -27.02 11 -26 11 C-25.505 11.99 -25.505 11.99 -25 13 C-23.68 13 -22.36 13 -21 13 C-20.67 12.34 -20.34 11.68 -20 11 C-19.01 11 -18.02 11 -17 11 C-16.34 11.66 -15.68 12.32 -15 13 C-14.7525 12.05125 -14.505 11.1025 -14.25 10.125 C-13 7 -13 7 -11.3125 5.5625 C-8.03559888 4.76541594 -5.27730347 5.36974933 -2 6 C-1.34 4.02 -0.68 2.04 0 0 Z " fill="#4F4727" transform="translate(85,33)"/>
<path d="M0 0 C2.38061674 1.88339932 3.41573741 3.34070208 5 6 C5 6.66 5 7.32 5 8 C-4.97248469 8.06999599 -14.90862611 7.86188011 -24.875 7.5 C-26.25650264 7.45160031 -27.63801306 7.40342227 -29.01953125 7.35546875 C-32.34643681 7.23914338 -35.67324796 7.12062283 -39 7 C-38.6875 5.0625 -38.6875 5.0625 -38 3 C-37.01 2.67 -36.02 2.34 -35 2 C-34.360625 1.34 -33.72125 0.68 -33.0625 0 C-26.04565681 -6.80421158 -8.07930091 -3.45345512 0 0 Z " fill="#EBEB99" transform="translate(85,15)"/>
<path d="M0 0 C2.80063432 1.14194429 5.47332213 2.32801232 8 4 C9 6.75 9 6.75 9 9 C9.66 9 10.32 9 11 9 C11.33164895 13.75363496 10.56608134 16.04395793 8 20 C8 20.99 8 21.98 8 23 C5 22 5 22 2.75 19.6875 C0.52605907 17.51410319 -0.92590459 16.36024528 -3.5625 14.9375 C-7.83949558 12.52682976 -10.43274647 10.70176059 -12 6 C-10.68 6.33 -9.36 6.66 -8 7 C-8 7.99 -8 8.98 -8 10 C-4.71211176 6.88983545 -2.16264012 3.98381075 0 0 Z " fill="#372E16" transform="translate(98,10)"/>
<path d="M0 0 C3.10164769 2.55024365 4.72566416 4.17699247 6 8 C6.14767323 10.68083716 6.23091588 13.31868052 6.25 16 C6.270625 16.72445313 6.29125 17.44890625 6.3125 18.1953125 C6.328125 20.3125 6.328125 20.3125 6 24 C5.01 24.99 4.02 25.98 3 27 C3.33 23.04 3.66 19.08 4 15 C3.34 15 2.68 15 2 15 C1.91878906 14.38640625 1.83757812 13.7728125 1.75390625 13.140625 C1.18806644 10.86169372 1.18806644 10.86169372 -0.84765625 9.734375 C-1.57855469 9.40953125 -2.30945313 9.0846875 -3.0625 8.75 C-3.79597656 8.41484375 -4.52945313 8.0796875 -5.28515625 7.734375 C-5.85105469 7.49203125 -6.41695312 7.2496875 -7 7 C-7.61488281 7.97453125 -7.61488281 7.97453125 -8.2421875 8.96875 C-8.78101562 9.8040625 -9.31984375 10.639375 -9.875 11.5 C-10.40867187 12.3353125 -10.94234375 13.170625 -11.4921875 14.03125 C-11.98976563 14.6809375 -12.48734375 15.330625 -13 16 C-13.66 16 -14.32 16 -15 16 C-15.73828125 14.35546875 -15.73828125 14.35546875 -16 12 C-14.41796875 9.23828125 -14.41796875 9.23828125 -12.1875 6.3125 C-11.45917969 5.33925781 -10.73085937 4.36601562 -9.98046875 3.36328125 C-6.91052178 -0.3000677 -4.69889853 -0.55281159 0 0 Z " fill="#1D180B" transform="translate(105,4)"/>
<path d="M0 0 C2.1640625 0.0234375 2.1640625 0.0234375 4.625 0.375 C5.85089844 0.54128906 5.85089844 0.54128906 7.1015625 0.7109375 C7.72804688 0.80632813 8.35453125 0.90171875 9 1 C10.45262714 7.17366533 10.45262714 7.17366533 8.4765625 10.78125 C6 13 6 13 2.5390625 13.05078125 C1.24742188 12.80714844 -0.04421875 12.56351563 -1.375 12.3125 C-6.83595123 11.32099369 -6.83595123 11.32099369 -12.359375 11.00390625 C-15 11 -15 11 -16.875 9.625 C-18 8 -18 8 -18 6 C-17.01 6 -16.02 6 -15 6 C-14.67 6.66 -14.34 7.32 -14 8 C-12.68 8 -11.36 8 -10 8 C-9.67 7.34 -9.34 6.68 -9 6 C-8.01 6 -7.02 6 -6 6 C-5.34 6.66 -4.68 7.32 -4 8 C-3.71125 7.05125 -3.4225 6.1025 -3.125 5.125 C-2 2 -2 2 0 0 Z " fill="#6E6136" transform="translate(74,38)"/>
<path d="M0 0 C1.65 0.33 3.3 0.66 5 1 C5.28571429 8.42857143 5.28571429 8.42857143 3 12 C0.69 12 -1.62 12 -4 12 C-4.65234375 10.265625 -4.65234375 10.265625 -5 8 C-4.00390625 5.859375 -4.00390625 5.859375 -2.5625 3.75 C-2.08941406 3.04359375 -1.61632813 2.3371875 -1.12890625 1.609375 C-0.75636719 1.07828125 -0.38382813 0.5471875 0 0 Z " fill="#9AF5E5" transform="translate(44,32)"/>
<path d="M0 0 C2.375 0.125 2.375 0.125 5 1 C7.99179956 4.61079257 8.32120156 7.39611104 8 12 C4.625 12.1875 4.625 12.1875 1 12 C-1.69461986 7.95807022 -1.23200889 5.7948504 -1 1 C-0.67 0.67 -0.34 0.34 0 0 Z " fill="#98F0E1" transform="translate(85,33)"/>
<path d="M0 0 C1.37478516 0.01740234 1.37478516 0.01740234 2.77734375 0.03515625 C3.69644531 0.04417969 4.61554688 0.05320312 5.5625 0.0625 C6.27277344 0.07410156 6.98304687 0.08570312 7.71484375 0.09765625 C7.71484375 0.42765625 7.71484375 0.75765625 7.71484375 1.09765625 C7.09996094 1.17242187 6.48507813 1.2471875 5.8515625 1.32421875 C3.34276452 1.73234857 1.09125892 2.18790161 -1.28515625 3.09765625 C-3.08545107 6.03121172 -3.08545107 6.03121172 -4.28515625 9.09765625 C-6.78515625 10.53515625 -6.78515625 10.53515625 -9.28515625 11.09765625 C-10.27515625 10.76765625 -11.26515625 10.43765625 -12.28515625 10.09765625 C-11.62515625 10.09765625 -10.96515625 10.09765625 -10.28515625 10.09765625 C-10.28515625 7.12765625 -10.28515625 4.15765625 -10.28515625 1.09765625 C-9.15078125 1.11828125 -8.01640625 1.13890625 -6.84765625 1.16015625 C-3.1101122 1.0945853 -3.25103022 0.13893292 0 0 Z " fill="#D7D791" transform="translate(91.28515625,73.90234375)"/>
<path d="M0 0 C3.0625 0.625 3.0625 0.625 6 2 C7.18359375 4.0859375 7.18359375 4.0859375 8 6 C7.38511719 5.94199219 6.77023438 5.88398437 6.13671875 5.82421875 C3.67666882 5.68689539 1.43974189 5.64032224 -1 6 C-3.11734188 8.24952182 -3.11734188 8.24952182 -4 11 C-4.33 11.66 -4.66 12.32 -5 13 C-4.34 13.33 -3.68 13.66 -3 14 C-4.32 13.67 -5.64 13.34 -7 13 C-7.8125 10.875 -7.8125 10.875 -8 8 C-5.59330515 4.59051563 -3.47401731 2.31601154 0 0 Z " fill="#504422" transform="translate(75,33)"/>
<path d="M0 0 C0.556875 0.9590625 0.556875 0.9590625 1.125 1.9375 C3.58052793 4.63858072 5.44578805 4.68407005 9 5 C9 5.33 9 5.66 9 6 C7.6696875 6.309375 7.6696875 6.309375 6.3125 6.625 C2.07721318 8.38304358 0.69506667 10.35373333 -2 14 C-6.75 13.25 -6.75 13.25 -9 11 C-11.20250992 10.53993654 -11.20250992 10.53993654 -13.625 10.375 C-14.44226563 10.30023438 -15.25953125 10.22546875 -16.1015625 10.1484375 C-16.72804688 10.09945312 -17.35453125 10.05046875 -18 10 C-18 9.34 -18 8.68 -18 8 C-10.575 8.99 -10.575 8.99 -3 10 C0.16130459 5.78492722 0.3367697 4.93928888 0 0 Z " fill="#5A532F" transform="translate(83,40)"/>
<path d="M0 0 C0.86625 0.2784375 0.86625 0.2784375 1.75 0.5625 C4.20692525 1.04023546 5.64397534 0.75729364 8 0 C7.1875 1.9375 7.1875 1.9375 6 4 C5.01 4.33 4.02 4.66 3 5 C2.34 5.66 1.68 6.32 1 7 C-2.08091573 8.84854944 -3.20027176 9 -7 9 C-6.61402985 6.20171644 -6.19863427 5.1794116 -4.0625 3.25 C-2 2 -2 2 0 2 C0 1.34 0 0.68 0 0 Z " fill="#2F2812" transform="translate(44,14)"/>
<path d="M0 0 C0.33 0 0.66 0 1 0 C1.07347656 1.06541016 1.07347656 1.06541016 1.1484375 2.15234375 C1.22320312 3.07144531 1.29796875 3.99054688 1.375 4.9375 C1.44460937 5.85402344 1.51421875 6.77054687 1.5859375 7.71484375 C1.72257812 8.46894531 1.85921875 9.22304687 2 10 C2.66 10.33 3.32 10.66 4 11 C4.125 14.375 4.125 14.375 4 18 C3.34 18.66 2.68 19.32 2 20 C1.60235737 21.98821313 1.26224651 23.98944339 1 26 C0.67 26 0.34 26 0 26 C-1.78426696 17.30169857 -0.91695613 8.76020593 0 0 Z " fill="#272315" transform="translate(62,105)"/>
<path d="M0 0 C0.33 0 0.66 0 1 0 C1.19777236 3.3953164 1.38139685 6.79125692 1.5625 10.1875 C1.61857422 11.14720703 1.67464844 12.10691406 1.73242188 13.09570312 C1.78076172 14.02705078 1.82910156 14.95839844 1.87890625 15.91796875 C1.9260376 16.77156982 1.97316895 17.6251709 2.02172852 18.50463867 C1.99892429 21.12353758 1.59213206 23.45403152 1 26 C0.67 26 0.34 26 0 26 C0 24.35 0 22.7 0 21 C-0.66 21 -1.32 21 -2 21 C-3.38125018 18.23749964 -3.19079306 16.05268901 -3 13 C-2.34 12.34 -1.68 11.68 -1 11 C-0.53709779 8.33757179 -0.53709779 8.33757179 -0.375 5.375 C-0.30023438 4.37210937 -0.22546875 3.36921875 -0.1484375 2.3359375 C-0.09945312 1.56507812 -0.05046875 0.79421875 0 0 Z " fill="#232216" transform="translate(76,103)"/>
<path d="M0 0 C3.37462715 0.54723683 5.08235 1.0549 8 3 C7.67 4.65 7.34 6.3 7 8 C3 8 3 8 0.25 5.5 C-0.4925 4.675 -1.235 3.85 -2 3 C-1.34 2.01 -0.68 1.02 0 0 Z " fill="#67592F" transform="translate(97,18)"/>
<path d="M0 0 C1.32 0.33 2.64 0.66 4 1 C4 1.99 4 2.98 4 4 C4.70511719 4.08636719 5.41023438 4.17273438 6.13671875 4.26171875 C9.64053558 5.16515856 11.88355341 6.69911016 14.8125 8.8125 C15.78832031 9.49957031 16.76414062 10.18664063 17.76953125 10.89453125 C18.50558594 11.58933594 19.24164063 12.28414062 20 13 C20 14.32 20 15.64 20 17 C17 16 17 16 14.75 13.6875 C12.52605907 11.51410319 11.07409541 10.36024528 8.4375 8.9375 C4.16050442 6.52682976 1.56725353 4.70176059 0 0 Z " fill="#3A3117" transform="translate(86,16)"/>
<path d="M0 0 C4.75 0.75 4.75 0.75 7 3 C7.125 6.125 7.125 6.125 7 9 C7.66 9 8.32 9 9 9 C8.67 10.65 8.34 12.3 8 14 C6.68 14 5.36 14 4 14 C4.33 11.69 4.66 9.38 5 7 C3.02 6.01 1.04 5.02 -1 4 C-0.67 2.68 -0.34 1.36 0 0 Z " fill="#544826" transform="translate(99,14)"/>
<path d="M0 0 C0.99 0 1.98 0 3 0 C3.33 0.66 3.66 1.32 4 2 C5.32 2 6.64 2 8 2 C8.33 1.34 8.66 0.68 9 0 C9.99 0 10.98 0 12 0 C12.33 0.66 12.66 1.32 13 2 C15.52733235 2.65555119 15.52733235 2.65555119 18 3 C18.33 2.01 18.66 1.02 19 0 C19.33 0.99 19.66 1.98 20 3 C17.52614329 5.47385671 16.02495772 5.28571102 12.63867188 5.32226562 C11.6109668 5.31743164 11.6109668 5.31743164 10.5625 5.3125 C9.5405957 5.33666992 9.5405957 5.33666992 8.49804688 5.36132812 C5.5215656 5.36424339 3.49972531 5.35327116 1.02734375 3.60546875 C0 2 0 2 0 0 Z " fill="#96DED2" transform="translate(56,44)"/>
<path d="M0 0 C2.0625 0.4375 2.0625 0.4375 4 1 C2.7580393 4.43927579 1.44259716 7.25207819 -1 10 C-1.66 10 -2.32 10 -3 10 C-3.99 12.31 -4.98 14.62 -6 17 C-7.23306978 14.07323092 -7.01493635 13.03773655 -5.8203125 10.01953125 C-5.26085937 8.96121094 -4.70140625 7.90289062 -4.125 6.8125 C-3.57070313 5.74644531 -3.01640625 4.68039063 -2.4453125 3.58203125 C-1 1 -1 1 0 0 Z " fill="#83835C" transform="translate(25,31)"/>
<path d="M0 0 C1.32 0.33 2.64 0.66 4 1 C4 2.98 4 4.96 4 7 C3.34 6.67 2.68 6.34 2 6 C1.67 7.65 1.34 9.3 1 11 C0.01 10.67 -0.98 10.34 -2 10 C-1.54177532 6.53058454 -1.10868317 3.32604951 0 0 Z " fill="#FFFFB7" transform="translate(57,89)"/>
<path d="M0 0 C2.475 0.495 2.475 0.495 5 1 C5.99 3.97 6.98 6.94 8 10 C6.35 8.68 4.7 7.36 3 6 C2.67 6.66 2.34 7.32 2 8 C0.74335022 5.09399739 0 3.20395416 0 0 Z " fill="#C0C080" transform="translate(106,35)"/>
<path d="M0 0 C-0.804375 0.3403125 -0.804375 0.3403125 -1.625 0.6875 C-7.78004495 4.08897221 -10.86610662 7.8527476 -14 14 C-14.66 13.34 -15.32 12.68 -16 12 C-14.71344735 10.18386638 -13.42060005 8.37219046 -12.125 6.5625 C-11.40570313 5.55316406 -10.68640625 4.54382813 -9.9453125 3.50390625 C-6.8738259 -0.44955341 -4.82261337 -0.10483942 0 0 Z " fill="#12100C" transform="translate(105,4)"/>
<path d="M0 0 C2.1640625 0.0234375 2.1640625 0.0234375 4.625 0.375 C5.85089844 0.54128906 5.85089844 0.54128906 7.1015625 0.7109375 C7.72804688 0.80632813 8.35453125 0.90171875 9 1 C9 1.33 9 1.66 9 2 C7.741875 2.2475 6.48375 2.495 5.1875 2.75 C2.1723125 3.48385516 1.23457187 3.73415188 -0.875 6.125 C-1.24625 6.74375 -1.6175 7.3625 -2 8 C-2.66 8 -3.32 8 -4 8 C-2.25 2.25 -2.25 2.25 0 0 Z " fill="#5E512B" transform="translate(74,38)"/>
<path d="M0 0 C0.33 0.66 0.66 1.32 1 2 C-0.109375 4.34765625 -0.109375 4.34765625 -1.75 7.0625 C-2.28109375 7.96097656 -2.8121875 8.85945312 -3.359375 9.78515625 C-5 12 -5 12 -8 13 C-6.24385848 8.02426569 -3.74380523 3.74380523 0 0 Z " fill="#1B1607" transform="translate(98,7)"/>
<path d="M0 0 C3.63 0 7.26 0 11 0 C11 0.66 11 1.32 11 2 C8.59454362 3.20272819 7.05003047 3.10071472 4.375 3.0625 C3.14910156 3.04896484 3.14910156 3.04896484 1.8984375 3.03515625 C0.95871094 3.01775391 0.95871094 3.01775391 0 3 C0 2.01 0 1.02 0 0 Z " fill="#FFFFBE" transform="translate(86,65)"/>
<path d="M0 0 C2.475 0.495 2.475 0.495 5 1 C4.6875 4.375 4.6875 4.375 4 8 C3.01 8.66 2.02 9.32 1 10 C0.67 6.7 0.34 3.4 0 0 Z " fill="#FEFEBE" transform="translate(81,91)"/>
<path d="M0 0 C0.845625 0.45375 1.69125 0.9075 2.5625 1.375 C2.5625 1.705 2.5625 2.035 2.5625 2.375 C1.325 2.436875 0.0875 2.49875 -1.1875 2.5625 C-4.64677731 2.97810222 -5.25039921 3.18297551 -7.8125 5.8125 C-8.34875 6.658125 -8.885 7.50375 -9.4375 8.375 C-10.0975 9.035 -10.7575 9.695 -11.4375 10.375 C-11.32248304 6.46442348 -9.98188848 4.55505835 -7.25 1.9375 C-4.27969044 -0.47434227 -3.9670502 -0.72128186 0 0 Z " fill="#443A1D" transform="translate(78.4375,33.625)"/>
<path d="M0 0 C0.99 0.33 1.98 0.66 3 1 C2.25 3.4375 2.25 3.4375 1 6 C-1.125 6.8125 -1.125 6.8125 -3 7 C-3.33 6.34 -3.66 5.68 -4 5 C-2.68 3.35 -1.36 1.7 0 0 Z " fill="#42381C" transform="translate(96,14)"/>
<path d="M0 0 C0.99 0.33 1.98 0.66 3 1 C1 4 1 4 -2 5 C-2.66 5.66 -3.32 6.32 -4 7 C-4.99 7 -5.98 7 -7 7 C-6 4 -6 4 -4.0625 2.75 C-3.381875 2.5025 -2.70125 2.255 -2 2 C-1.34 2.33 -0.68 2.66 0 3 C0 2.01 0 1.02 0 0 Z " fill="#6B633C" transform="translate(49,14)"/>
<path d="M0 0 C1.32 0.33 2.64 0.66 4 1 C4 1.99 4 2.98 4 4 C5.65 4.33 7.3 4.66 9 5 C9 5.66 9 6.32 9 7 C7.35 7 5.7 7 4 7 C2.02 3.535 2.02 3.535 0 0 Z " fill="#2E2A18" transform="translate(86,16)"/>
<path d="M0 0 C0.99 0 1.98 0 3 0 C2.67 1.65 2.34 3.3 2 5 C0.68 5 -0.64 5 -2 5 C-1.34 3.35 -0.68 1.7 0 0 Z " fill="#4C4121" transform="translate(105,23)"/>
<path d="M0 0 C0.99 0.66 1.98 1.32 3 2 C2.67 3.32 2.34 4.64 2 6 C0.68 5.34 -0.64 4.68 -2 4 C-1.34 2.68 -0.68 1.36 0 0 Z " fill="#706134" transform="translate(101,21)"/>
<path d="M0 0 C1.37478516 0.01740234 1.37478516 0.01740234 2.77734375 0.03515625 C3.69644531 0.04417969 4.61554688 0.05320312 5.5625 0.0625 C6.27277344 0.07410156 6.98304687 0.08570312 7.71484375 0.09765625 C7.71484375 0.42765625 7.71484375 0.75765625 7.71484375 1.09765625 C7.08835937 1.20722656 6.461875 1.31679687 5.81640625 1.4296875 C4.99914062 1.58824219 4.181875 1.74679688 3.33984375 1.91015625 C2.12167969 2.13638672 2.12167969 2.13638672 0.87890625 2.3671875 C-1.64336266 2.97310567 -1.64336266 2.97310567 -3.28515625 6.09765625 C-3.32787725 4.4315372 -3.32579457 2.7638274 -3.28515625 1.09765625 C-2.28515625 0.09765625 -2.28515625 0.09765625 0 0 Z " fill="#4D4D35" transform="translate(91.28515625,73.90234375)"/>
<path d="M0 0 C2.475 0.99 2.475 0.99 5 2 C2.33333333 3.33333333 -0.33333333 4.66666667 -3 6 C-2.67 4.68 -2.34 3.36 -2 2 C-1.34 2 -0.68 2 0 2 C0 1.34 0 0.68 0 0 Z " fill="#3B3218" transform="translate(44,14)"/>
<path d="M0 0 C0.93423645 3.01031744 1.04449911 3.86650268 0 7 C-0.99 7 -1.98 7 -3 7 C-2.25 2.25 -2.25 2.25 0 0 Z " fill="#FBFBC5" transform="translate(23,39)"/>
<path d="M0 0 C0.66 0.33 1.32 0.66 2 1 C-1.625 5.875 -1.625 5.875 -5 7 C-3.70700306 4.11562221 -2.34058637 2.12780579 0 0 Z " fill="#544825" transform="translate(86,47)"/>
<path d="M0 0 C0.99 0 1.98 0 3 0 C1.92598892 2.91517292 1.22189824 4.77810176 -1 7 C-2 4 -2 4 -1.0625 1.8125 C-0.5365625 0.9153125 -0.5365625 0.9153125 0 0 Z " fill="#EBEBB5" transform="translate(26,32)"/>
</svg>
